<?xml version="1.0" encoding="utf-8"?>
<!-- Generator: Adobe Illustrator 19.1.0, SVG Export Plug-In . SVG Version: 6.00 Build 0)  -->
<svg version="1.1" xmlns="http://www.w3.org/2000/svg" xmlns:xlink="http://www.w3.org/1999/xlink" x="0px" y="0px"
	 viewBox="0 0 89.7 48.5" style="enable-background:new 0 0 89.7 48.5;" xml:space="preserve">
<style type="text/css">
	.st0{fill:#F1F1F2;}
	.st1{fill:#404041;}
	.st2{fill:#3B3A3C;}
	.st3{fill:#F1F1F1;}
	.st4{fill:#FFFFFF;}
	.st5{fill:#87AF9A;}
	.st6{fill:#9CCCB2;}
	.st7{fill:#3CE6AD;}
	.st8{fill:#58595B;}
	.st9{fill:#FFFFFF;stroke:#231F20;stroke-width:0.7067;stroke-miterlimit:10;}
	.st10{fill:none;stroke:#231F20;stroke-width:2;stroke-miterlimit:10;}
	.st11{fill:#F1F1F1;stroke:#FFFFFF;stroke-miterlimit:10;}
	.st12{fill:#58595B;stroke:#58595B;stroke-miterlimit:10;}
	.st13{fill:#3CE6AD;stroke:#3CE6AD;stroke-miterlimit:10;}
</style>
<g id="background">
</g>
<g id="Layer_1">
	<polygon class="st8" points="65.3,17.5 61.3,17.5 54.6,32.3 37.2,32.3 27.8,10.9 27.8,10.9 17.4,10.9 17.4,14.3 25.3,14.3 
		34.7,35.7 34.7,35.7 34.7,35.7 57,35.7 57,35.7 57,35.7 	"/>
	<circle class="st8" cx="37.3" cy="40.3" r="3"/>
	<circle class="st8" cx="54.2" cy="40.3" r="3"/>
	<path class="st8" d="M45.9,28.3c1.9,0,4.6,0.4,5.7-5.4c0.7-6.8-4.2-14.1-5.7-14.3c-1.5,0.2-6.3,7.5-5.7,14.3
		C41.3,28.7,43.9,28.3,45.9,28.3z"/>
</g>
<g id="Isolation_Mode">
</g>
</svg>
