<?xml version="1.0" encoding="utf-8"?>
<!-- Generator: Adobe Illustrator 19.1.0, SVG Export Plug-In . SVG Version: 6.00 Build 0)  -->
<svg version="1.1" xmlns="http://www.w3.org/2000/svg" xmlns:xlink="http://www.w3.org/1999/xlink" x="0px" y="0px"
	 viewBox="0 0 293.5 67.5" style="enable-background:new 0 0 293.5 67.5;" xml:space="preserve">
<style type="text/css">
	.st0{fill:#F1F1F2;}
	.st1{fill:#404041;}
	.st2{fill:#3B3A3C;}
	.st3{fill:#F1F1F1;}
	.st4{fill:#FFFFFF;}
	.st5{fill:#87AF9A;}
	.st6{fill:#9CCCB2;}
	.st7{fill:#58595B;}
	.st8{fill:#6D6E70;}
	.st9{fill:#A6A8AB;}
	.st10{fill:#3CE6AD;}
	.st11{fill:#FFFFFF;stroke:#231F20;stroke-width:0.7067;stroke-miterlimit:10;}
	.st12{fill:none;stroke:#231F20;stroke-width:2;stroke-miterlimit:10;}
	.st13{fill:#F1F1F1;stroke:#FFFFFF;stroke-miterlimit:10;}
	.st14{fill:#58595B;stroke:#58595B;stroke-miterlimit:10;}
	.st15{fill:#3CE6AD;stroke:#3CE6AD;stroke-miterlimit:10;}
</style>
<g id="background">
</g>
<g id="Layer_1">
	<rect x="0" y="0" class="st4" width="293.5" height="67.5"/>
	<g>
		<path class="st7" d="M66.6,26.4c-0.6,0.5-0.8,1.1-0.8,1.8c0,0.8,0.3,1.4,1,1.8s2.3,1,4.8,1.6c2.5,0.6,4.4,1.5,5.8,2.8
			c1.4,1.2,2.1,3,2.1,5.4c0,2.3-0.9,4.3-2.6,5.7c-1.8,1.5-4.1,2.2-7,2.2c-4.1,0-7.9-1.5-11.2-4.6l3.5-4.3c2.8,2.5,5.4,3.7,7.8,3.7
			c1.1,0,1.9-0.2,2.5-0.7c0.6-0.5,0.9-1.1,0.9-1.9c0-0.8-0.3-1.4-1-1.9c-0.7-0.5-1.9-0.9-3.9-1.4c-3-0.7-5.3-1.7-6.7-2.8
			s-2.1-3-2.1-5.5c0-2.5,0.9-4.4,2.7-5.8c1.8-1.3,4-2,6.7-2c1.7,0,3.5,0.3,5.2,0.9c1.8,0.6,3.3,1.4,4.6,2.5l-3,4.3
			c-2.3-1.7-4.6-2.6-7-2.6C67.9,25.7,67.2,25.9,66.6,26.4z"/>
		<path class="st7" d="M102.6,23.5c1.8,1.6,2.8,4,2.8,7.2c0,3.2-0.9,5.6-2.8,7.1c-1.9,1.5-4.8,2.2-8.6,2.2h-3.5v7.3h-5.8V21.1h9.3
			C97.8,21.1,100.8,21.9,102.6,23.5z M98.3,33.8c0.7-0.8,1-1.9,1-3.4c0-1.5-0.5-2.6-1.4-3.2c-0.9-0.6-2.3-1-4.3-1h-3.3V35h3.9
			C96.3,35,97.6,34.6,98.3,33.8z"/>
		<path class="st7" d="M131.2,29.8c0,4.2-1.7,6.9-5,8.1l6.6,9.4h-7.2l-5.8-8.4h-4v8.4h-5.8V21.1h9.9c4.1,0,7,0.7,8.7,2.1
			C130.3,24.6,131.2,26.8,131.2,29.8z M124.1,32.9c0.7-0.6,1.1-1.7,1.1-3.1c0-1.4-0.4-2.4-1.1-2.9s-2.1-0.8-3.9-0.8h-4.4v7.8h4.3
			C122.1,33.9,123.4,33.6,124.1,32.9z"/>
		<path class="st7" d="M158.8,43.7c-2.6,2.6-5.9,3.9-9.8,3.9s-7.1-1.3-9.8-3.9c-2.6-2.6-4-5.8-4-9.7c0-3.8,1.3-7.1,4-9.7
			s5.9-3.9,9.8-3.9s7.1,1.3,9.8,3.9c2.6,2.6,4,5.8,4,9.7C162.8,37.9,161.5,41.1,158.8,43.7z M156.8,34.1c0-2.3-0.8-4.3-2.2-6
			c-1.5-1.6-3.3-2.5-5.5-2.5c-2.2,0-4,0.8-5.5,2.5c-1.5,1.6-2.2,3.6-2.2,6c0,2.3,0.7,4.3,2.2,6c1.5,1.6,3.3,2.5,5.5,2.5
			c2.2,0,4-0.8,5.5-2.5C156.1,38.4,156.8,36.4,156.8,34.1z"/>
		<path class="st7" d="M174.7,40.6c1,1.2,2.3,1.8,3.9,1.8s3-0.6,3.9-1.8s1.4-2.9,1.4-5V21.1h5.8v14.7c0,3.8-1,6.7-3.1,8.8
			c-2.1,2-4.8,3.1-8.1,3.1c-3.3,0-6-1-8.1-3.1c-2.1-2-3.2-5-3.2-8.7V21.1h5.8v14.5C173.2,37.7,173.7,39.4,174.7,40.6z"/>
		<path class="st7" d="M206.8,26.2v21.1h-5.8V26.2h-7.4v-5.1h20.7v5.1H206.8z"/>
		<path class="st7" d="M237,21.1v5.2h-13v5.4h11.7v5H224v5.4h13.5v5.2h-19.3V21.1H237z"/>
		<path class="st7" d="M263,24.6c2.5,2.3,3.7,5.5,3.7,9.5c0,4.1-1.2,7.3-3.7,9.7c-2.4,2.4-6.2,3.6-11.2,3.6h-9V21.1h9.3
			C256.9,21.1,260.5,22.3,263,24.6z M258.7,40.1c1.4-1.3,2.2-3.3,2.2-5.9s-0.7-4.6-2.2-5.9c-1.4-1.4-3.6-2.1-6.6-2.1h-3.3v15.9h3.7
			C255.2,42.2,257.2,41.5,258.7,40.1z"/>
	</g>
	<path class="st10" d="M23.3,58.1c4.8-0.1,11.4,0.9,14-13.3C39,28,26.9,9.9,23.3,9.5C19.8,9.9,7.7,28,9.3,44.8
		C12,59,18.6,58,23.3,58.1z"/>
</g>
<g id="Isolation_Mode">
</g>
</svg>
